Coordinates
version=1
nRows=11
nColumns=40
inDegrees=yes

Units are S.I. units (second, meters, Newtons, ...)
Angles are in degrees.

endheader
time	pelvis_tilt	pelvis_list	pelvis_rotation	pelvis_tx	pelvis_ty	pelvis_tz	hip_flexion_r	hip_adduction_r	hip_rotation_r	knee_angle_r	knee_angle_r_beta	ankle_angle_r	subtalar_angle_r	mtp_angle_r	hip_flexion_l	hip_adduction_l	hip_rotation_l	knee_angle_l	knee_angle_l_beta	ankle_angle_l	subtalar_angle_l	mtp_angle_l	lumbar_extension	lumbar_bending	lumbar_rotation	arm_flex_r	arm_add_r	arm_rot_r	elbow_flex_r	pro_sup_r	wrist_flex_r	wrist_dev_r	arm_flex_l	arm_add_l	arm_rot_l	elbow_flex_l	pro_sup_l	wrist_flex_l	wrist_dev_l
     43.74000000	     -5.48345281	     -5.50304726	     -2.25153927	      0.95146908	      0.92815881	      0.50949310	     15.86427359	      4.40737708	    -12.42814883	     18.60992836	     18.60992836	     10.08125037	      3.64425067	     -0.78626340	     28.46303737	    -13.12426553	      1.02136625	     66.22735558	     66.22735558	      5.59475951	    -17.62005978	      9.01544178	    -10.45465638	      7.59143396	      1.61765372	     18.75823521	    -17.09908968	     -5.89109267	     64.57924583	     45.38878155	      0.00000000	      0.00000000	     10.98122604	     -9.66201842	     -7.93146260	     42.92772895	     45.37599301	      0.00000000	      0.00000000
     43.75307143	     -5.57447142	     -5.44431857	     -1.81782789	      0.95034460	      0.92873963	      0.51001842	     15.08948402	      4.41711690	    -12.71971568	     17.74197154	     17.74197154	     10.23639432	      3.88711662	     -0.78523257	     29.84092585	    -13.10912328	      1.27572177	     64.68584984	     64.68584984	      5.89128854	    -17.87690599	      9.13015166	    -10.44587072	      7.39667666	      1.16858203	     20.81181246	    -16.84942287	     -5.92034840	     66.35852293	     45.33931610	      0.00000000	      0.00000000	      9.64824034	     -9.48618867	     -7.75638783	     41.31765427	     45.35096788	      0.00000000	      0.00000000
     43.76614286	     -5.62981588	     -5.44417927	     -1.43764377	      0.94920551	      0.92920947	      0.51055928	     14.36035100	      4.49906475	    -12.93247124	     17.02134472	     17.02134472	     10.36505290	      3.98040357	     -0.86853754	     31.04219061	    -13.16415742	      1.43412149	     62.90551200	     62.90551200	      6.19029138	    -18.06056922	      9.34246740	    -10.51264729	      7.30075780	      0.89476518	     22.89285297	    -16.75923500	     -5.85601122	     68.32631242	     45.28106954	      0.00000000	      0.00000000	      8.49750746	     -9.25338947	     -7.58489654	     39.54391798	     45.32745460	      0.00000000	      0.00000000
     43.77921429	     -5.70520898	     -5.40278587	     -1.07715225	      0.94807388	      0.92949264	      0.51092001	     13.67105886	      4.52680330	    -13.14461590	     16.30888396	     16.30888396	     10.29548474	      4.04267624	     -1.73185005	     32.13839566	    -13.12530653	      1.53042240	     60.89910306	     60.89910306	      6.66620599	    -18.09619354	      9.97006902	    -10.52640361	      7.20731477	      1.42437982	     24.02933497	    -17.72014549	     -5.23947928	     71.50541517	     45.17020421	      0.00000000	      0.00000000	      8.70085788	     -8.58415566	     -7.36296231	     35.30625581	     45.37242315	      0.00000000	      0.00000000
     43.79228571	     -5.75312298	     -5.40097823	     -0.71468074	      0.94695416	      0.92986026	      0.51122356	     12.95335579	      4.61675907	    -13.27273096	     15.59279793	     15.59279793	     10.41249402	      4.06178431	     -1.73496673	     33.00854055	    -13.07399229	      1.60001519	     58.46536068	     58.46536068	      6.88500800	    -18.17467847	     10.34218990	    -10.61628363	      7.10800669	      1.28298994	     26.05921117	    -17.57891595	     -5.55472472	     73.12590298	     45.13856791	      0.00000000	      0.00000000	      7.44611524	     -8.35291321	     -7.25472968	     34.16758164	     45.35217677	      0.00000000	      0.00000000
     43.80535714	     -5.81194209	     -5.40786779	     -0.35654997	      0.94585705	      0.93008470	      0.51131478	     12.25306863	      4.70033242	    -13.45256895	     14.88148362	     14.88148362	     10.51662651	      4.14554600	     -1.86261870	     33.73125085	    -12.95187774	      1.67585187	     55.71263875	     55.71263875	      7.19872611	    -18.14391502	     10.72291081	    -10.68898827	      7.06753327	      1.11890194	     27.91297776	    -17.46371535	     -5.65745700	     75.01969069	     45.09106150	      0.00000000	      0.00000000	      6.31674774	     -8.11833329	     -7.11185425	     32.67068018	     45.33257990	      0.00000000	      0.00000000
     43.81842857	     -5.93549158	     -5.42182045	     -0.02583616	      0.94472646	      0.93004118	      0.51121148	     11.67441334	      4.76130236	    -13.69019916	     14.24472272	     14.24472272	     10.46479551	      4.29838542	     -2.61485199	     34.36814202	    -12.78730516	      1.70790690	     52.63052227	     52.63052227	      7.44641331	    -17.97887854	     10.84087130	    -10.68854116	      7.07166269	      1.59399089	     29.08087121	    -18.13629815	     -5.56389738	     77.78116109	     45.02035375	      0.00000000	      0.00000000	      6.02721780	     -7.68855639	     -6.82336391	     29.94239282	     45.35014980	      0.00000000	      0.00000000
     43.83150000	     -6.05915155	     -5.39688327	      0.28919486	      0.94361088	      0.92996330	      0.51091573	     11.12377374	      4.78057481	    -13.82478823	     13.67042836	     13.67042836	     10.61032439	      4.33562535	     -2.72330168	     34.79972320	    -12.48672471	      1.74925157	     49.18124167	     49.18124167	      7.68743091	    -17.76783045	     10.96962375	    -10.69923282	      7.01015863	      1.60147190	     30.82437542	    -18.09558413	     -5.74192358	     79.44814841	     44.98550313	      0.00000000	      0.00000000	      4.88641846	     -7.47435145	     -6.70365975	     29.01039113	     45.33237293	      0.00000000	      0.00000000
     43.84457143	     -6.19396905	     -5.34772762	      0.58167328	      0.94253942	      0.92973914	      0.51048207	     10.65537216	      4.74454707	    -13.95585023	     13.24089540	     13.24089540	     10.82226432	      4.41006972	     -2.86202324	     35.05256601	    -12.12104120	      1.75763169	     45.42997880	     45.42997880	      7.94461384	    -17.29425475	     11.04082573	    -10.67854730	      6.90878616	      1.70253128	     32.41579649	    -18.14858145	     -5.75571212	     81.01352916	     44.94602331	      0.00000000	      0.00000000	      3.75435881	     -7.28910127	     -6.59565228	     28.21369361	     45.30906792	      0.00000000	      0.00000000
     43.85764286	     -6.34357313	     -5.39829580	      0.89348793	      0.94156495	      0.92929402	      0.50985562	     10.19789865	      4.78653817	    -14.25774673	     12.80348844	     12.80348844	     10.90750910	      4.65126784	     -3.44836106	     35.12458042	    -11.81942073	      1.76827773	     41.33009128	     41.33009128	      7.44713200	    -16.77057342	      9.08370111	    -10.68677057	      6.98491284	      2.12639963	     33.39203530	    -18.83996696	     -5.40568352	     83.98842378	     44.87337176	      0.00000000	      0.00000000	      2.91664813	     -7.05410911	     -5.99569952	     27.11735795	     45.26181202	      0.00000000	      0.00000000
     43.87071429	     -6.61707988	     -5.51311168	      1.19123870	      0.94053005	      0.92853120	      0.50912744	     10.02275180	      4.87690917	    -14.42376316	     12.64780987	     12.64780987	     11.18664155	      4.54566699	     -3.56947243	     35.35287349	    -11.52199545	      1.87565971	     37.40321022	     37.40321022	      7.80395665	    -15.64462765	      9.40942440	    -10.44373970	      7.11428447	      2.39123448	     34.90163181	    -19.06445479	     -5.59031500	     84.88727540	     44.85888237	      0.00000000	      0.00000000	      1.80030113	     -6.81961202	     -5.93543121	     26.66246171	     45.23689852	      0.00000000	      0.00000000
